<svg
    width="35"
    height="360"
    viewBox="0 0 35 360"
    fill="none"
    xmlns="http://www.w3.org/2000/svg"
>
    <g clip-path="url(#clip0_86_40)">
        <path
            d="M34.3435 336.751C34.3435 337.039 34.2157 337.23 33.9603 337.326L28.3561 339.05C28.2603 339.082 28.2124 339.146 28.2124 339.242L28.2124 352.701C28.2124 352.797 28.2603 352.861 28.3561 352.893L33.9603 354.617C34.2157 354.713 34.3435 354.905 34.3435 355.192L34.3435 359.072C34.3435 359.423 34.1678 359.551 33.8166 359.455L1.19757 348.965C0.942111 348.87 0.814378 348.678 0.814378 348.391L0.814378 343.601C0.814378 343.313 0.94211 343.122 1.19757 343.026L33.8166 332.44L34.0082 332.392C34.2317 332.392 34.3435 332.536 34.3435 332.824L34.3435 336.751ZM24.3326 351.696C24.3965 351.728 24.4604 351.728 24.5242 351.696C24.5562 351.632 24.5721 351.568 24.5721 351.504L24.5721 340.487C24.5721 340.423 24.5562 340.376 24.5242 340.344C24.4604 340.28 24.3965 340.264 24.3326 340.296L6.56223 345.852C6.49836 345.884 6.46642 345.932 6.46642 345.996C6.46642 346.06 6.49836 346.107 6.56223 346.139L24.3326 351.696ZM34.3435 320.274C34.3435 320.561 34.2157 320.753 33.9603 320.849L1.34125 331.099L1.14967 331.147C0.926139 331.147 0.814377 331.003 0.814377 330.716L0.814377 326.836C0.814377 326.549 0.94211 326.357 1.19757 326.261L27.6855 318.358C27.7494 318.326 27.7813 318.278 27.7813 318.214C27.7813 318.151 27.7494 318.103 27.6855 318.071L1.19757 310.167C0.942109 310.072 0.814376 309.896 0.814376 309.641L0.814376 305.857C0.814376 305.505 0.989989 305.378 1.34125 305.473L33.9603 315.82C34.2157 315.915 34.3435 316.107 34.3435 316.394L34.3435 320.274ZM4.31098 278.219C4.6303 278.219 4.78997 278.379 4.78997 278.698L4.78997 295.702C4.78997 295.83 4.85383 295.894 4.98156 295.894L15.2798 295.894C15.4075 295.894 15.4714 295.83 15.4714 295.702L15.4714 284.015C15.4714 283.695 15.631 283.536 15.9504 283.536L18.968 283.536C19.2873 283.536 19.447 283.695 19.447 284.015L19.447 295.702C19.447 295.83 19.5108 295.894 19.6385 295.894L30.1763 295.894C30.304 295.894 30.3679 295.83 30.3679 295.702L30.3679 278.698C30.3679 278.379 30.5275 278.219 30.8469 278.219L33.8645 278.219C34.1838 278.219 34.3435 278.379 34.3435 278.698L34.3435 300.013C34.3435 300.332 34.1838 300.492 33.8645 300.492L1.29337 300.492C0.974049 300.492 0.814376 300.332 0.814376 300.013L0.814375 278.698C0.814375 278.379 0.974048 278.219 1.29337 278.219L4.31098 278.219ZM34.3435 262.844C34.3435 263.131 34.2157 263.323 33.9603 263.418L1.34124 273.669L1.14966 273.717C0.926137 273.717 0.814375 273.573 0.814375 273.285L0.814375 269.406C0.814375 269.118 0.942107 268.927 1.19757 268.831L27.6855 260.928C27.7494 260.896 27.7813 260.848 27.7813 260.784C27.7813 260.72 27.7494 260.672 27.6855 260.64L1.19757 252.737C0.942106 252.641 0.814374 252.466 0.814374 252.21L0.814374 248.426C0.814374 248.075 0.989987 247.947 1.34124 248.043L33.9603 258.389C34.2157 258.485 34.3435 258.676 34.3435 258.964L34.3435 262.844ZM34.3435 226.776C34.3435 227.063 34.2157 227.255 33.9603 227.351L28.3561 229.075C28.2603 229.107 28.2124 229.171 28.2124 229.267L28.2124 242.726C28.2124 242.822 28.2603 242.886 28.3561 242.918L33.9603 244.642C34.2157 244.738 34.3435 244.929 34.3435 245.217L34.3435 249.097C34.3435 249.448 34.1678 249.576 33.8166 249.48L1.19757 238.99C0.942106 238.894 0.814373 238.703 0.814373 238.415L0.814373 233.625C0.814373 233.338 0.942106 233.146 1.19757 233.051L33.8166 222.465L34.0082 222.417C34.2317 222.417 34.3435 222.561 34.3435 222.848L34.3435 226.776ZM24.3326 241.72C24.3965 241.752 24.4604 241.752 24.5242 241.72C24.5562 241.656 24.5721 241.593 24.5721 241.529L24.5721 230.512C24.5721 230.448 24.5562 230.4 24.5242 230.368C24.4604 230.304 24.3965 230.288 24.3326 230.32L6.56222 235.877C6.49836 235.909 6.46642 235.956 6.46642 236.02C6.46642 236.084 6.49836 236.132 6.56222 236.164L24.3326 241.72ZM0.766468 175.093C0.766468 173.145 1.18158 171.437 2.01182 169.968C2.81013 168.467 3.94375 167.318 5.41264 166.519C6.88154 165.689 8.57394 165.274 10.4899 165.274C12.4058 165.274 14.0823 165.689 15.5193 166.519C16.9562 167.35 18.0739 168.531 18.8722 170.064C19.6705 171.565 20.0696 173.305 20.0696 175.285L20.0696 183.715C20.0696 183.843 20.1335 183.907 20.2612 183.907L33.8645 183.907C34.1838 183.907 34.3435 184.066 34.3435 184.386L34.3435 188.026C34.3435 188.345 34.1838 188.505 33.8645 188.505L1.24547 188.505C0.926141 188.505 0.766468 188.345 0.766468 188.026L0.766468 175.093ZM16.3335 175.716C16.3335 173.96 15.8066 172.555 14.7529 171.501C13.6991 170.415 12.31 169.872 10.5857 169.872C8.82941 169.872 7.42438 170.415 6.37061 171.501C5.28491 172.555 4.74207 173.96 4.74207 175.716L4.74207 183.715C4.74207 183.843 4.80592 183.907 4.93365 183.907L16.1419 183.907C16.2697 183.907 16.3335 183.843 16.3335 183.715L16.3335 175.716ZM34.3434 159.335C34.3434 159.654 34.1838 159.814 33.8645 159.814L1.29337 159.814C0.974043 159.814 0.81437 159.654 0.81437 159.335L0.81437 155.694C0.81437 155.375 0.974043 155.215 1.29337 155.215L33.8645 155.215C34.1838 155.215 34.3434 155.375 34.3434 155.694L34.3434 159.335ZM34.3434 129.302C34.3434 129.589 34.2157 129.781 33.9603 129.877L1.34124 140.127L1.14966 140.175C0.926131 140.175 0.814369 140.031 0.814369 139.744L0.814369 135.864C0.814369 135.577 0.942101 135.385 1.19756 135.289L27.6855 127.386C27.7494 127.354 27.7813 127.306 27.7813 127.242C27.7813 127.179 27.7494 127.131 27.6855 127.099L1.19756 119.195C0.942101 119.1 0.814368 118.924 0.814368 118.669L0.814368 114.885C0.814368 114.533 0.989981 114.406 1.34124 114.501L33.9603 124.847C34.2157 124.943 34.3434 125.135 34.3434 125.422L34.3434 129.302ZM6.13112 106.79C6.13112 107.684 5.84372 108.418 5.26893 108.993C4.69415 109.568 3.9597 109.855 3.06559 109.855C2.17148 109.855 1.43705 109.568 0.86227 108.993C0.287486 108.418 8.05461e-05 107.684 8.0507e-05 106.79C8.04679e-05 105.896 0.287486 105.161 0.86227 104.586C1.43705 104.012 2.17148 103.724 3.06559 103.724C3.9597 103.724 4.69415 104.012 5.26893 104.586C5.84372 105.161 6.13112 105.896 6.13112 106.79ZM34.2955 108.706C34.2955 109.025 34.1359 109.185 33.8165 109.185L10.442 109.185C10.1227 109.185 9.96301 109.025 9.96301 108.706L9.96301 105.065C9.96301 104.746 10.1227 104.586 10.442 104.586L33.8165 104.586C34.1359 104.586 34.2955 104.746 34.2955 105.065L34.2955 108.706ZM34.6308 88.7798C34.6308 90.6957 34.3434 92.3881 33.7686 93.857C33.1939 95.294 32.4115 96.4116 31.4216 97.2099C30.3998 98.0082 29.2821 98.4074 28.0687 98.4074L27.5418 98.4074C27.2225 98.4074 27.0628 98.2477 27.0628 97.9284L27.0628 94.4797C27.0628 94.1604 27.2225 94.0007 27.5418 94.0007L27.7813 94.0007C28.6754 94.0007 29.4578 93.5218 30.1284 92.5638C30.7989 91.5739 31.1342 90.3285 31.1342 88.8277C31.1342 87.3907 30.8309 86.2252 30.2241 85.3311C29.5855 84.437 28.7872 83.9899 27.8292 83.9899C26.9032 83.9899 26.2166 84.405 25.7696 85.2353C25.2906 86.0655 24.7956 87.4067 24.2847 89.2588C23.7738 91.0789 23.2629 92.6117 22.752 93.857C22.2091 95.0705 21.4587 96.1083 20.5007 96.9704C19.5108 97.8007 18.2495 98.2158 16.7167 98.2158C14.5773 98.2158 12.8848 97.3856 11.6395 95.7251C10.3622 94.0327 9.72353 91.7974 9.72353 89.0193C9.72353 87.1672 10.0269 85.5386 10.6336 84.1336C11.2084 82.6967 12.0227 81.595 13.0764 80.8286C14.1302 80.0622 15.3117 79.679 16.6209 79.679L16.7646 79.679C17.084 79.679 17.2436 79.8387 17.2436 80.158L17.2436 83.5109C17.2436 83.8302 17.084 83.9899 16.7646 83.9899L16.6209 83.9899C15.6949 83.9899 14.9285 84.4529 14.3218 85.379C13.6832 86.2731 13.3638 87.5025 13.3638 89.0672C13.3638 90.4722 13.6352 91.6218 14.1781 92.5159C14.7209 93.3781 15.4554 93.8091 16.3814 93.8091C17.3075 93.8091 18.01 93.394 18.489 92.5638C18.968 91.7016 19.4789 90.3285 20.0217 88.4445C20.5326 86.5924 21.0436 85.0596 21.5545 83.8462C22.0335 82.6008 22.7679 81.5471 23.7578 80.6849C24.7158 79.8227 25.9771 79.3916 27.5418 79.3916C29.7132 79.3916 31.4376 80.2538 32.7149 81.9782C33.9922 83.6706 34.6308 85.9378 34.6308 88.7798ZM6.13112 71.2489C6.13112 72.143 5.84372 72.8774 5.26893 73.4522C4.69415 74.027 3.95969 74.3144 3.06559 74.3144C2.17148 74.3144 1.43705 74.027 0.862269 73.4522C0.287485 72.8774 7.89926e-05 72.143 7.89535e-05 71.2489C7.89144e-05 70.3547 0.287485 69.6203 0.862269 69.0455C1.43705 68.4707 2.17148 68.1834 3.06559 68.1834C3.95969 68.1834 4.69415 68.4707 5.26893 69.0455C5.84372 69.6203 6.13112 70.3547 6.13112 71.2489ZM34.2955 73.1648C34.2955 73.4841 34.1359 73.6438 33.8165 73.6438L10.442 73.6438C10.1227 73.6438 9.96301 73.4841 9.96301 73.1648L9.96301 69.5245C9.96301 69.2052 10.1227 69.0455 10.442 69.0455L33.8165 69.0455C34.1359 69.0455 34.2955 69.2052 34.2955 69.5245L34.2955 73.1648ZM34.7266 51.8499C34.7266 54.2129 34.1359 56.2726 32.9544 58.0288C31.741 59.7851 30.0645 61.0145 27.925 61.717C26.2007 62.2918 24.2528 62.5792 22.0814 62.5792C19.8142 62.5792 17.8982 62.3078 16.3335 61.7649C14.226 61.0624 12.5815 59.833 11.4 58.0767C10.1865 56.3204 9.57982 54.2289 9.57982 51.802C9.57982 49.5029 10.1865 47.5071 11.4 45.8147C12.5815 44.0903 14.21 42.8609 16.2856 42.1265C17.9142 41.5517 19.8301 41.2643 22.0335 41.2643C24.2688 41.2643 26.2326 41.5517 27.925 42.1265C30.0645 42.829 31.741 44.0424 32.9544 45.7667C34.1359 47.4911 34.7266 49.5188 34.7266 51.8499ZM30.751 51.8499C30.751 50.5726 30.3998 49.455 29.6973 48.497C28.9628 47.539 27.941 46.8525 26.6318 46.4374C25.4183 46.0861 23.9175 45.9105 22.1293 45.9105C20.341 45.9105 18.8562 46.0701 17.6747 46.3895C16.3655 46.8046 15.3596 47.4911 14.6571 48.4491C13.9226 49.4071 13.5554 50.5726 13.5554 51.9457C13.5554 53.2549 13.9226 54.3885 14.6571 55.3465C15.3596 56.3045 16.3655 56.991 17.6747 57.4061C18.7923 57.7574 20.2772 57.933 22.1293 57.933C23.9813 57.933 25.4822 57.7574 26.6318 57.4061C27.941 57.0229 28.9628 56.3524 29.6973 55.3944C30.3998 54.4045 30.751 53.223 30.751 51.8499ZM9.62772 24.356C9.62772 21.7376 10.3941 19.662 11.9268 18.1292C13.4277 16.5965 15.4714 15.8301 18.0579 15.8301L33.8644 15.8301C34.1838 15.8301 34.3434 15.9897 34.3434 16.3091L34.3434 19.9494C34.3434 20.2687 34.1838 20.4284 33.8644 20.4284L18.9679 20.4284C17.3713 20.4284 16.0781 20.8914 15.0882 21.8174C14.0982 22.7435 13.6033 23.9729 13.6033 25.5056C13.6033 27.0064 14.0982 28.2358 15.0882 29.1938C16.0781 30.1518 17.3554 30.6308 18.92 30.6308L33.8644 30.6308C34.1838 30.6308 34.3434 30.7904 34.3434 31.1098L34.3434 34.7501C34.3434 35.0694 34.1838 35.229 33.8644 35.229L10.442 35.229C10.1227 35.229 9.96301 35.0694 9.96301 34.7501L9.96301 31.1098C9.96301 30.7904 10.1227 30.6308 10.442 30.6308L12.1664 30.6308C12.2302 30.6308 12.2781 30.6148 12.31 30.5829C12.342 30.519 12.326 30.4711 12.2621 30.4392C10.5058 29.0661 9.62772 27.0384 9.62772 24.356Z"
            fill="white"
        />
        <path
            d="M2.59293 220.228C2.59293 220.388 2.5131 220.467 2.35344 220.467L1.6589 220.467C1.49923 220.467 1.4194 220.388 1.4194 220.228L1.4194 214.48C1.4194 214.32 1.49923 214.241 1.6589 214.241L2.35344 214.241C2.5131 214.241 2.59293 214.32 2.59293 214.48L2.59293 216.635C2.59293 216.699 2.62486 216.731 2.68873 216.731L9.58621 216.731C9.74587 216.731 9.82573 216.811 9.82573 216.971L9.82573 217.833C9.82573 217.993 9.74587 218.072 9.58621 218.072L2.68873 218.072C2.62486 218.072 2.59293 218.104 2.59293 218.168L2.59293 220.228ZM1.5631 207.463C1.46731 207.399 1.4194 207.303 1.4194 207.175L1.4194 206.313C1.4194 206.153 1.49923 206.074 1.6589 206.074L9.58604 206.074C9.7457 206.074 9.82553 206.153 9.82553 206.313L9.82553 207.175C9.82553 207.335 9.7457 207.415 9.58604 207.415L3.74232 207.415C3.69442 207.415 3.6625 207.431 3.64653 207.463C3.63069 207.495 3.64664 207.518 3.69441 207.534L5.87383 208.971C5.96963 209.051 6.01753 209.147 6.01753 209.259L6.01753 209.498C6.01753 209.626 5.96963 209.722 5.87383 209.786L3.69441 211.247C3.64651 211.263 3.63056 211.287 3.64653 211.318C3.66237 211.35 3.6943 211.366 3.74232 211.366L9.58604 211.366C9.7457 211.366 9.82553 211.446 9.82553 211.606L9.82553 212.468C9.82553 212.628 9.7457 212.708 9.58604 212.708L1.6589 212.708C1.49923 212.708 1.4194 212.628 1.4194 212.468L1.4194 211.582C1.4194 211.454 1.46731 211.358 1.56311 211.295L4.29336 209.474C4.3092 209.458 4.3171 209.434 4.3171 209.403C4.3171 209.371 4.3092 209.347 4.29336 209.331L1.5631 207.463Z"
            fill="white"
            stroke="white"
            stroke-width="0.37716"
        />
        <path
            d="M2.9701 13.9215C2.9701 14.0812 2.89027 14.161 2.73061 14.161L2.03606 14.161C1.8764 14.161 1.79657 14.0812 1.79657 13.9215L1.79657 8.17363C1.79657 8.01396 1.8764 7.93413 2.03606 7.93413L2.73061 7.93413C2.89027 7.93413 2.9701 8.01396 2.9701 8.17363L2.9701 10.3291C2.9701 10.393 3.00203 10.4249 3.06589 10.4249L9.96338 10.4249C10.123 10.4249 10.2029 10.5047 10.2029 10.6644L10.2029 11.5266C10.2029 11.6862 10.123 11.7661 9.96338 11.7661L3.06589 11.7661C3.00203 11.7661 2.9701 11.798 2.9701 11.8619L2.9701 13.9215ZM1.94027 1.1562C1.84447 1.09233 1.79657 0.996522 1.79657 0.868791L1.79657 0.00660549C1.79657 -0.153059 1.8764 -0.232889 2.03606 -0.232889L9.9632 -0.232889C10.1229 -0.232889 10.2027 -0.153059 10.2027 0.00660512L10.2027 0.86879C10.2027 1.02845 10.1229 1.1083 9.9632 1.1083L4.11949 1.1083C4.07159 1.1083 4.03966 1.12426 4.0237 1.1562C4.00786 1.18813 4.0238 1.21208 4.07158 1.22805L6.251 2.66503C6.3468 2.74486 6.3947 2.84065 6.3947 2.95242L6.3947 3.19191C6.3947 3.31964 6.3468 3.41544 6.251 3.4793L4.07158 4.94024C4.02368 4.95633 4.00773 4.98028 4.0237 5.01209C4.03954 5.04402 4.07146 5.05998 4.11949 5.05998L9.9632 5.05998C10.1229 5.05998 10.2027 5.13981 10.2027 5.29948L10.2027 6.16166C10.2027 6.32133 10.1229 6.40116 9.9632 6.40116L2.03606 6.40116C1.8764 6.40116 1.79657 6.32133 1.79657 6.16166L1.79657 5.27554C1.79657 5.14781 1.84447 5.052 1.94027 4.98813L4.67053 3.16796C4.68637 3.15186 4.69427 3.12793 4.69427 3.09612C4.69427 3.06419 4.68637 3.04023 4.67053 3.02427L1.94027 1.1562Z"
            fill="white"
            stroke="white"
            stroke-width="0.37716"
        />
    </g>
    <defs>
        <clipPath id="clip0_86_40">
            <rect
                width="359.486"
                height="34.8"
                fill="white"
                transform="translate(3.05176e-05 359.486) rotate(-90)"
            />
        </clipPath>
    </defs>
</svg>