<svg width="317" height="62" viewBox="0 0 317 62" fill="none" xmlns="http://www.w3.org/2000/svg">
    <path
        d="M145.045 15.7372C133.087 15.7372 121.02 21.0141 121.02 32.7917C121.02 38.3181 123.655 42.839 128.597 45.871C132.767 48.4121 138.481 49.8229 144.678 49.8229C148.623 49.8229 152.458 49.324 156.542 47.96L154.297 42.3947C151.639 43.026 149.324 43.2287 147.329 43.2287C137.624 43.2287 132.042 39.4327 132.042 32.7917C132.042 26.1585 137.897 22.1989 147.305 22.1989C149.168 22.1989 150.938 22.3782 153.206 22.877L156.581 17.5845C152.481 15.9009 148.716 15.7372 145.037 15.7372M95.6472 15.7372C85.1706 15.7372 73.899 21.0609 73.899 32.745C73.899 44.4368 85.1706 49.8463 95.6472 49.8463C106.124 49.8463 117.403 44.4992 117.403 32.745C117.403 20.9907 106.124 15.7372 95.6472 15.7372ZM95.6472 43.8445C89.3176 43.8445 84.9212 39.269 84.9212 32.745C84.9212 26.2131 89.2319 21.6221 95.6472 21.6221C102.07 21.6221 106.373 26.104 106.373 32.745C106.373 39.386 101.953 43.8445 95.6472 43.8445ZM176.163 15.7372C171.353 15.7372 166.769 16.3841 161.718 17.7872V49.3007H172.546V22.1054C173.746 21.9261 174.876 21.8325 175.921 21.8325C178.369 21.8325 186.335 22.3782 186.335 29.4946C186.335 34.6313 181.666 36.9462 177.012 36.9462C176.802 36.9462 176.303 36.9229 175.921 36.9073L173.769 41.4749C175.851 41.7009 176.965 41.7711 178.08 41.7711C187.668 41.7711 197.357 37.7881 197.357 28.9022C197.357 20.8972 188.666 15.7372 176.17 15.7372"
        fill="#E5F3E7" />
    <path
        d="M57.1708 43.8757C60.2421 41.2412 66.3223 36.1903 64.1552 24.3971C64.1318 24.2646 63.937 24.2724 63.9292 24.4049C63.6174 29.066 61.1463 32.0124 59.9771 35.6836C59.9459 35.7928 59.79 35.7694 59.79 35.6525C59.829 32.0903 56.8746 29.3388 56.4225 27.2109C56.3913 27.0862 56.212 27.0862 56.1887 27.2109C55.0584 34.2962 58.3791 39.0743 56.9915 43.7588C56.9604 43.868 57.0851 43.9537 57.1708 43.8757Z"
        fill="#E5F3E7" />
    <path
        d="M62.3232 41.5373C58.6439 45.9568 58.0982 45.6138 54.1227 49.5033C54.0448 49.5891 53.9123 49.4878 53.9746 49.3864C56.6172 45.037 55.0737 41.5295 54.3956 40.0563C54.341 39.9472 54.1851 39.9784 54.1773 40.0953C53.959 44.5226 50.6929 54.336 35.2898 60.3378C34.713 60.5561 34.4402 60.9302 34.487 61.1952C34.487 61.1952 34.4869 61.5538 35.3132 61.5148C39.3355 61.3277 56.0403 57.75 62.4869 41.6386C62.5336 41.5295 62.3933 41.4515 62.3232 41.5373Z"
        fill="#E5F3E7" />
    <path
        d="M31.868 10.9437C30.3089 13.781 28.4147 19.1982 28.0795 20.913H26.5205C26.4504 20.913 26.3958 20.9754 26.4036 21.0377C26.5595 22.9474 30.2544 25.6911 31.7043 26.6966C31.7822 26.7512 31.8835 26.6966 31.8835 26.5953L32.0862 11.0061C32.0862 10.8814 31.9303 10.8346 31.868 10.9437Z"
        fill="#E5F3E7" />
    <path
        d="M32.7332 10.9437C34.3 13.781 36.1865 19.1982 36.5216 20.913H38.0807C38.1508 20.913 38.2054 20.9754 38.2054 21.0377C38.0495 22.9474 34.3468 25.6911 32.8969 26.6966C32.8268 26.7512 32.7254 26.6966 32.7254 26.5953L32.5228 11.0061C32.5228 10.8814 32.6787 10.8346 32.741 10.9437"
        fill="#E5F3E7" />
    <path
        d="M12.77 25.4882C14.9838 27.8578 19.5362 31.3342 21.064 32.176L20.5807 33.6648C20.5651 33.7349 20.5963 33.8051 20.6664 33.8206C22.5217 34.2571 26.2711 31.5836 27.6742 30.5079C27.7444 30.4534 27.721 30.3443 27.6352 30.3131L12.9025 25.3012C12.7934 25.27 12.6921 25.4025 12.7778 25.4882"
        fill="#E5F3E7" />
    <path
        d="M13.0428 24.6618C16.2154 24.0538 21.9448 23.9213 23.6753 24.1396L24.1586 22.6508C24.1742 22.5807 24.2443 22.5495 24.3145 22.5729C26.0762 23.3056 27.5338 27.6861 28.0405 29.3775C28.0639 29.4633 27.9782 29.5412 27.8924 29.5178L13.035 24.8879C12.9181 24.8567 12.9259 24.6852 13.0428 24.6618Z"
        fill="#E5F3E7" />
    <path
        d="M20.6743 48.186C23.6052 46.8142 28.3134 43.5482 29.584 42.3557L30.8468 43.2754C30.9014 43.3144 30.9794 43.2988 31.0183 43.2443C32.0083 41.6074 30.6208 37.2112 30.044 35.5432C30.0128 35.4497 29.8958 35.4419 29.8413 35.5198L20.5418 48.0145C20.4638 48.1081 20.5651 48.2406 20.6743 48.186Z"
        fill="#E5F3E7" />
    <path
        d="M19.9727 47.6795C20.378 44.4682 22.0228 38.9652 22.7633 37.3829L21.4927 36.4631C21.4381 36.4242 21.4303 36.3462 21.4693 36.2917C22.7165 34.8419 27.3156 34.8029 29.0773 34.8419C29.1708 34.8419 29.2176 34.951 29.1631 35.0289L20.1831 47.7575C20.1208 47.8588 19.9571 47.8043 19.9727 47.6873"
        fill="#E5F3E7" />
    <path
        d="M44.652 47.6793C44.2467 44.4601 42.6019 38.9649 41.8692 37.3748L43.132 36.4551C43.1865 36.4161 43.1943 36.3382 43.1553 36.2836C41.9081 34.8338 37.309 34.7948 35.5396 34.8338C35.446 34.8338 35.3992 34.9429 35.4538 35.0209L44.4337 47.7572C44.5039 47.8508 44.6676 47.7962 44.6442 47.6793"
        fill="#E5F3E7" />
    <path
        d="M43.9503 48.1861C41.0272 46.8143 36.319 43.5405 35.0406 42.348L33.7778 43.2677C33.7232 43.3067 33.6453 43.2989 33.6063 43.2365C32.6163 41.5997 34.0038 37.2035 34.5807 35.5355C34.6118 35.4497 34.7288 35.4342 34.7833 35.5121L44.0907 48.0068C44.1608 48.1082 44.0595 48.2407 43.9503 48.1861Z"
        fill="#E5F3E7" />
    <path
        d="M51.5739 24.6618C48.4013 24.0461 42.6719 23.9213 40.9414 24.1318L40.4581 22.643C40.4426 22.5807 40.3646 22.5417 40.3022 22.5651C38.5406 23.3056 37.0829 27.6783 36.5762 29.3698C36.5528 29.4633 36.6386 29.5412 36.7243 29.5101L51.5817 24.8879C51.6986 24.8489 51.6909 24.6852 51.5739 24.6618Z"
        fill="#E5F3E7" />
    <path
        d="M51.839 25.4882C49.633 27.8578 45.0729 31.3342 43.5528 32.176L44.0361 33.6648C44.0517 33.7349 44.0205 33.8051 43.9504 33.8206C42.0951 34.2571 38.3457 31.5836 36.9426 30.5079C36.8724 30.4534 36.8958 30.3443 36.9816 30.3131L51.7143 25.3012C51.8234 25.27 51.9169 25.4025 51.839 25.4882Z"
        fill="#E5F3E7" />
    <path
        d="M52.439 8.69087C51.4802 7.81788 50.0771 7.38917 48.6428 7.24887C48.5181 7.24108 48.3934 7.2021 48.2843 7.14754C45.7665 5.79128 43.0772 4.63768 40.2865 4.00632C40.2787 4.00632 40.2475 3.99853 40.2475 3.99853C40.1774 3.98294 40.115 4.02191 40.0994 4.09206C40.0916 4.15442 40.1306 4.21678 40.193 4.24016C40.193 4.24016 40.2242 4.24016 40.2397 4.24796C43.1863 4.97285 46.125 6.32132 47.8322 7.73993C47.9491 7.83346 48.0348 7.95818 48.0972 8.09848C48.5805 9.25208 49.1183 10.3199 50.0771 11.2007C51.0047 12.0503 52.3143 12.1906 52.9613 11.5047C53.6083 10.8188 53.4836 9.6496 52.4468 8.69087"
        fill="#E5F3E7" />
    <path
        d="M58.2776 19.1434L55.4558 15.5423C53.3278 12.8376 52.3534 13.617 50.7242 13.7028C50.4358 13.7184 50.1552 13.6326 49.9291 13.4534C47.0137 11.0994 43.7398 8.88573 39.4058 7.96597C39.3902 7.96597 39.359 7.95818 39.359 7.95818C39.3044 7.94259 39.2421 7.98156 39.2343 8.03612C39.2187 8.09068 39.2577 8.14525 39.3044 8.15304C39.3044 8.15304 39.5539 8.22319 39.6786 8.25437C43.1864 9.18972 46.1875 10.8811 48.8534 13.5937C53.3122 18.9719 56.2119 18.2782 58.1295 19.3071C58.2387 19.3694 58.3556 19.2369 58.2776 19.1356"
        fill="#E5F3E7" />
    <path
        d="M59.3533 18.6602C58.948 16.4076 59.5404 12.4947 56.7108 9.33012C56.6095 9.19761 56.4458 9.03392 56.2821 8.87024C52.3846 4.66896 47.1852 1.5901 41.0817 0.2884C40.5828 0.187071 40.0839 0.0935355 39.5694 0.00779459C39.5617 0.00779459 39.5383 0 39.5383 0C39.4837 0 39.4291 0.0311778 39.4213 0.0857404C39.4135 0.140301 39.4525 0.194863 39.5071 0.202657C39.5071 0.202657 39.5617 0.210454 39.585 0.218248C40.0683 0.303989 40.5516 0.405319 41.0271 0.506648C46.6552 1.78496 51.418 4.4585 55.1596 8.90921C55.3701 9.16643 55.4324 9.50939 55.3233 9.82118C54.8868 11.006 54.5516 11.9413 55.6663 13.5782C55.9859 14.0614 58.2542 17.4209 59.1429 18.7382C59.213 18.8395 59.3689 18.7772 59.3456 18.6602"
        fill="#E5F3E7" />
    <path
        d="M60.2732 24.4127C60.2732 24.5219 60.1251 24.553 60.0861 24.4517C59.7977 23.719 59.2131 22.5186 58.1919 21.5443C56.9057 20.305 55.4948 20.2114 54.4269 19.2137C54.3411 19.128 54.2008 19.2059 54.2242 19.3229C55.5572 25.6443 59.5093 25.9093 60.0393 29.4792C60.0549 29.5961 60.2186 29.6117 60.2576 29.4948C61.3333 26.2055 65.9792 21.2247 60.1485 13.6718C60.0705 13.5705 59.9068 13.6562 59.9458 13.7809C61.2632 17.7639 60.1874 21.2559 60.2732 24.4127Z"
        fill="#E5F3E7" />
    <path
        d="M7.44605 43.8757C4.37479 41.2412 -1.70537 36.1903 0.453864 24.3971C0.47725 24.2646 0.672125 24.2724 0.687714 24.4049C0.991723 29.066 3.46276 32.0124 4.63202 35.6836C4.6632 35.7928 4.81911 35.7694 4.81911 35.6525C4.78013 32.0903 7.73446 29.3388 8.18658 27.2109C8.22555 27.0862 8.40484 27.0862 8.42043 27.2109C9.55851 34.2962 6.23001 39.0743 7.61754 43.7588C7.64872 43.868 7.53179 43.9537 7.44605 43.8757Z"
        fill="#E5F3E7" />
    <path
        d="M2.29338 41.5373C5.97266 45.9568 6.51052 45.6138 10.486 49.5033C10.5718 49.5891 10.7043 49.4878 10.6419 49.3864C7.99158 45.037 9.53501 41.5295 10.221 40.0563C10.2677 39.9472 10.4236 39.9784 10.4314 40.0953C10.6575 44.5226 13.9236 54.336 29.3189 60.3378C29.8957 60.5561 30.1686 60.9302 30.1218 61.1952C30.1218 61.1952 30.1218 61.5538 29.2955 61.5148C25.2811 61.3277 8.56842 57.75 2.12189 41.6386C2.08292 41.5295 2.22323 41.4515 2.29338 41.5373Z"
        fill="#E5F3E7" />
    <path
        d="M12.1697 8.69087C13.1285 7.81788 14.5394 7.38917 15.9659 7.24887C16.0985 7.24108 16.2154 7.2021 16.3245 7.14754C18.8423 5.79128 21.5394 4.63768 24.3223 4.00632C24.33 4.00632 24.3612 3.99853 24.3612 3.99853C24.4236 3.98294 24.4937 4.02191 24.5093 4.09206C24.5171 4.15442 24.4782 4.21678 24.4158 4.24016C24.4158 4.24016 24.3846 4.24016 24.369 4.24796C21.4225 4.97285 18.4837 6.32132 16.7766 7.73993C16.6597 7.83346 16.5739 7.95818 16.5116 8.09848C16.0283 9.25208 15.4904 10.3199 14.5316 11.2007C13.604 12.0503 12.2945 12.1906 11.6475 11.5047C11.0005 10.8188 11.1252 9.6496 12.1619 8.69087"
        fill="#E5F3E7" />
    <path
        d="M6.33905 19.1434L9.16087 15.5423C11.2889 12.8376 12.2633 13.617 13.8847 13.7028C14.1731 13.7184 14.4537 13.6326 14.6798 13.4534C17.5951 11.0994 20.8691 8.88573 25.2031 7.96597C25.2187 7.96597 25.2577 7.95818 25.2577 7.95818C25.3123 7.94259 25.3668 7.98156 25.3746 8.03612C25.3902 8.09068 25.359 8.14525 25.3045 8.15304C25.3045 8.15304 25.055 8.22319 24.9303 8.25437C21.4225 9.18972 18.4214 10.8811 15.7555 13.5937C11.2967 18.9719 8.40475 18.2782 6.47936 19.3071C6.37803 19.3694 6.2611 19.2369 6.33905 19.1356"
        fill="#E5F3E7" />
    <path
        d="M5.25562 18.6602C5.66096 16.4076 5.06853 12.4947 7.89815 9.33012C8.00728 9.19761 8.16318 9.03392 8.32688 8.87024C12.2322 4.66896 17.4237 1.5901 23.5351 0.2884C24.034 0.187071 24.5328 0.0935355 25.0395 0.00779459C25.0551 0.00779459 25.0785 0 25.0785 0C25.1331 0 25.1798 0.0311778 25.1876 0.0857404C25.1954 0.140301 25.1564 0.194863 25.1019 0.202657C25.1019 0.202657 25.0551 0.210454 25.0317 0.218248C24.5406 0.303989 24.0573 0.405319 23.5818 0.506648C17.9538 1.78496 13.191 4.4585 9.45716 8.90921C9.24669 9.16643 9.18433 9.50939 9.29346 9.82118C9.72999 11.006 10.0652 11.9413 8.95048 13.5782C8.62309 14.0614 6.36251 17.4209 5.47388 18.7382C5.40372 18.8395 5.24002 18.7772 5.26341 18.6602"
        fill="#E5F3E7" />
    <path
        d="M4.66307 13.7809C4.70984 13.6562 4.54615 13.5705 4.4604 13.6718C-1.37032 21.2247 3.27555 26.2133 4.35127 29.5026C4.39024 29.6117 4.55394 29.5961 4.56953 29.4792C5.10739 25.9093 9.05949 25.6443 10.3847 19.3229C10.408 19.2059 10.2677 19.128 10.182 19.2137C9.11406 20.2114 7.71095 20.2972 6.41696 21.5443C5.39581 22.5186 4.81897 23.719 4.52276 24.4517C4.48379 24.553 4.33568 24.5219 4.33568 24.4127C4.42143 21.2559 3.3457 17.7639 4.66307 13.7809Z"
        fill="#E5F3E7" />
    <line x1="211.857" y1="15.2589" x2="211.857" y2="46.2589" stroke="#E5F3E7" stroke-width="3"
        stroke-linecap="round" />
    <path
        d="M230.365 25.9269C229.261 25.9269 228.285 25.7349 227.437 25.3509C226.605 24.9669 225.949 24.4309 225.469 23.7429C224.989 23.0549 224.733 22.2869 224.701 21.4389H226.477C226.557 22.2549 226.917 22.9749 227.557 23.5989C228.197 24.2069 229.133 24.5109 230.365 24.5109C231.501 24.5109 232.397 24.2229 233.053 23.6469C233.725 23.0549 234.061 22.3109 234.061 21.4149C234.061 20.6949 233.877 20.1189 233.509 19.6869C233.141 19.2389 232.685 18.9109 232.141 18.7029C231.597 18.4789 230.845 18.2389 229.885 17.9829C228.765 17.6789 227.877 17.3829 227.221 17.0949C226.565 16.8069 226.005 16.3589 225.541 15.7509C225.077 15.1429 224.845 14.3189 224.845 13.2789C224.845 12.4149 225.069 11.6469 225.517 10.9749C225.965 10.2869 226.597 9.75091 227.413 9.36691C228.229 8.98291 229.165 8.79091 230.221 8.79091C231.773 8.79091 233.021 9.17491 233.965 9.94291C234.925 10.6949 235.477 11.6709 235.621 12.8709H233.797C233.685 12.1829 233.309 11.5749 232.669 11.0469C232.029 10.5029 231.165 10.2309 230.077 10.2309C229.069 10.2309 228.229 10.5029 227.557 11.0469C226.885 11.5749 226.549 12.3029 226.549 13.2309C226.549 13.9349 226.733 14.5029 227.101 14.9349C227.469 15.3669 227.925 15.6949 228.469 15.9189C229.029 16.1429 229.781 16.3829 230.725 16.6389C231.813 16.9429 232.693 17.2469 233.365 17.5509C234.037 17.8389 234.605 18.2869 235.069 18.8949C235.533 19.5029 235.765 20.3189 235.765 21.3429C235.765 22.1269 235.557 22.8709 235.141 23.5749C234.725 24.2789 234.109 24.8469 233.293 25.2789C232.477 25.7109 231.501 25.9269 230.365 25.9269ZM246.86 17.0949C247.804 17.2709 248.604 17.7509 249.26 18.5349C249.916 19.3189 250.244 20.2309 250.244 21.2709C250.244 22.1189 250.028 22.8869 249.596 23.5749C249.18 24.2469 248.564 24.7829 247.748 25.1829C246.932 25.5669 245.956 25.7589 244.82 25.7589H239.012V8.98291H244.652C246.348 8.98291 247.636 9.37491 248.516 10.1589C249.412 10.9429 249.86 11.9589 249.86 13.2069C249.86 14.2469 249.58 15.0949 249.02 15.7509C248.46 16.3909 247.74 16.8389 246.86 17.0949ZM240.692 16.3989H244.604C245.74 16.3989 246.612 16.1349 247.22 15.6069C247.844 15.0629 248.156 14.3189 248.156 13.3749C248.156 12.4469 247.844 11.7189 247.22 11.1909C246.612 10.6629 245.716 10.3989 244.532 10.3989H240.692V16.3989ZM244.7 24.3429C245.916 24.3429 246.86 24.0549 247.532 23.4789C248.22 22.9029 248.564 22.1109 248.564 21.1029C248.564 20.0949 248.204 19.2949 247.484 18.7029C246.78 18.0949 245.828 17.7909 244.628 17.7909H240.692V24.3429H244.7ZM254.94 8.98291V19.5429C254.94 21.2069 255.332 22.4389 256.116 23.2389C256.916 24.0389 258.004 24.4389 259.38 24.4389C260.756 24.4389 261.828 24.0469 262.596 23.2629C263.38 22.4629 263.772 21.2229 263.772 19.5429V8.98291H265.452V19.5189C265.452 21.6469 264.884 23.2469 263.748 24.3189C262.628 25.3909 261.164 25.9269 259.356 25.9269C257.548 25.9269 256.076 25.3909 254.94 24.3189C253.82 23.2469 253.26 21.6469 253.26 19.5189V8.98291H254.94ZM244.453 33.8389V50.7589H239.749V41.4229L236.557 50.7589H232.621L229.405 41.3509V50.7589H224.701V33.8389H230.389L234.637 44.8309L238.789 33.8389H244.453ZM251.835 33.8389V50.7589H247.131V33.8389H251.835ZM270.186 50.7589H265.482L259.218 41.3029V50.7589H254.514V33.8389H259.218L265.482 43.4149V33.8389H270.186V50.7589ZM277.569 33.8389V50.7589H272.865V33.8389H277.569ZM295.92 50.7589H291.216L284.952 41.3029V50.7589H280.248V33.8389H284.952L291.216 43.4149V33.8389H295.92V50.7589ZM309.4 39.4069C309.128 38.9589 308.752 38.6149 308.272 38.3749C307.808 38.1349 307.256 38.0149 306.616 38.0149C305.432 38.0149 304.496 38.3989 303.808 39.1669C303.136 39.9349 302.8 40.9669 302.8 42.2629C302.8 43.7189 303.16 44.8309 303.88 45.5989C304.616 46.3509 305.68 46.7269 307.072 46.7269C308.72 46.7269 309.896 45.9829 310.6 44.4949H305.872V41.1109H314.656V45.6709C314.288 46.5669 313.744 47.4069 313.024 48.1909C312.32 48.9749 311.424 49.6229 310.336 50.1349C309.248 50.6309 308.008 50.8789 306.616 50.8789C304.92 50.8789 303.416 50.5189 302.104 49.7989C300.808 49.0629 299.8 48.0469 299.08 46.7509C298.376 45.4389 298.024 43.9429 298.024 42.2629C298.024 40.5989 298.376 39.1189 299.08 37.8229C299.8 36.5109 300.808 35.4949 302.104 34.7749C303.4 34.0389 304.896 33.6709 306.592 33.6709C308.72 33.6709 310.48 34.1829 311.872 35.2069C313.264 36.2309 314.128 37.6309 314.464 39.4069H309.4Z"
        fill="#E5F3E7" />
</svg>