<svg
    width="245"
    height="22"
    viewBox="0 0 245 22"
    fill="none"
    xmlns="http://www.w3.org/2000/svg"
>
    <path
        d="M10.7 6.50002C10.7 7.31335 10.5133 8.06002 10.14 8.74002C9.76668 9.40669 9.19334 9.94669 8.42001 10.36C7.64668 10.7734 6.68668 10.98 5.54001 10.98H3.42001V16.02H9.81987e-06V1.98002H5.54001C6.66001 1.98002 7.60668 2.17335 8.38001 2.56002C9.15334 2.94669 9.73334 3.48002 10.12 4.16002C10.5067 4.84002 10.7 5.62002 10.7 6.50002ZM5.28001 8.26002C5.93334 8.26002 6.42001 8.10669 6.74001 7.80002C7.06001 7.49335 7.22001 7.06002 7.22001 6.50002C7.22001 5.94002 7.06001 5.50669 6.74001 5.20002C6.42001 4.89335 5.93334 4.74002 5.28001 4.74002H3.42001V8.26002H5.28001ZM14.2005 3.70002C13.6005 3.70002 13.1071 3.52669 12.7205 3.18002C12.3471 2.82002 12.1605 2.38002 12.1605 1.86002C12.1605 1.32669 12.3471 0.886686 12.7205 0.540019C13.1071 0.180018 13.6005 1.83582e-05 14.2005 1.83582e-05C14.7871 1.83582e-05 15.2671 0.180018 15.6405 0.540019C16.0271 0.886686 16.2205 1.32669 16.2205 1.86002C16.2205 2.38002 16.0271 2.82002 15.6405 3.18002C15.2671 3.52669 14.7871 3.70002 14.2005 3.70002ZM15.9005 4.86002V16.02H12.4805V4.86002H15.9005ZM21.7989 6.44002C22.1322 5.92002 22.5922 5.50002 23.1789 5.18002C23.7656 4.86002 24.4522 4.70002 25.2389 4.70002C26.1589 4.70002 26.9923 4.93335 27.7389 5.40002C28.4856 5.86669 29.0722 6.53335 29.4989 7.40002C29.9389 8.26669 30.1589 9.27335 30.1589 10.42C30.1589 11.5667 29.9389 12.58 29.4989 13.46C29.0722 14.3267 28.4856 15 27.7389 15.48C26.9923 15.9467 26.1589 16.18 25.2389 16.18C24.4656 16.18 23.7789 16.02 23.1789 15.7C22.5922 15.38 22.1322 14.9667 21.7989 14.46V21.34H18.3789V4.86002H21.7989V6.44002ZM26.6789 10.42C26.6789 9.56669 26.4389 8.90002 25.9589 8.42002C25.4922 7.92669 24.9122 7.68002 24.2189 7.68002C23.5389 7.68002 22.9589 7.92669 22.4789 8.42002C22.0122 8.91335 21.7789 9.58669 21.7789 10.44C21.7789 11.2934 22.0122 11.9667 22.4789 12.46C22.9589 12.9534 23.5389 13.2 24.2189 13.2C24.8989 13.2 25.4789 12.9534 25.9589 12.46C26.4389 11.9534 26.6789 11.2734 26.6789 10.42ZM42.4731 10.26C42.4731 10.58 42.4531 10.9134 42.4131 11.26H34.6731C34.7265 11.9534 34.9465 12.4867 35.3331 12.86C35.7331 13.22 36.2198 13.4 36.7931 13.4C37.6465 13.4 38.2398 13.04 38.5731 12.32H42.2131C42.0265 13.0534 41.6865 13.7134 41.1931 14.3C40.7131 14.8867 40.1065 15.3467 39.3731 15.68C38.6398 16.0134 37.8198 16.18 36.9131 16.18C35.8198 16.18 34.8465 15.9467 33.9931 15.48C33.1398 15.0134 32.4731 14.3467 31.9931 13.48C31.5131 12.6134 31.2731 11.6 31.2731 10.44C31.2731 9.28002 31.5065 8.26669 31.9731 7.40002C32.4531 6.53335 33.1198 5.86669 33.9731 5.40002C34.8265 4.93335 35.8065 4.70002 36.9131 4.70002C37.9931 4.70002 38.9531 4.92669 39.7931 5.38002C40.6331 5.83335 41.2865 6.48002 41.7531 7.32002C42.2331 8.16002 42.4731 9.14002 42.4731 10.26ZM38.9731 9.36002C38.9731 8.77335 38.7731 8.30669 38.3731 7.96002C37.9731 7.61335 37.4731 7.44002 36.8731 7.44002C36.2998 7.44002 35.8131 7.60669 35.4131 7.94002C35.0265 8.27335 34.7865 8.74669 34.6931 9.36002H38.9731ZM47.6974 1.22002V16.02H44.2774V1.22002H47.6974ZM51.8958 3.70002C51.2958 3.70002 50.8025 3.52669 50.4158 3.18002C50.0425 2.82002 49.8558 2.38002 49.8558 1.86002C49.8558 1.32669 50.0425 0.886686 50.4158 0.540019C50.8025 0.180018 51.2958 1.83582e-05 51.8958 1.83582e-05C52.4825 1.83582e-05 52.9625 0.180018 53.3358 0.540019C53.7225 0.886686 53.9158 1.32669 53.9158 1.86002C53.9158 2.38002 53.7225 2.82002 53.3358 3.18002C52.9625 3.52669 52.4825 3.70002 51.8958 3.70002ZM53.5958 4.86002V16.02H50.1758V4.86002H53.5958ZM62.8742 4.74002C64.1809 4.74002 65.2209 5.16669 65.9942 6.02002C66.7809 6.86002 67.1742 8.02002 67.1742 9.50002V16.02H63.7742V9.96002C63.7742 9.21335 63.5809 8.63335 63.1942 8.22002C62.8076 7.80669 62.2876 7.60002 61.6342 7.60002C60.9809 7.60002 60.4609 7.80669 60.0742 8.22002C59.6876 8.63335 59.4942 9.21335 59.4942 9.96002V16.02H56.0742V4.86002H59.4942V6.34002C59.8409 5.84669 60.3076 5.46002 60.8942 5.18002C61.4809 4.88669 62.1409 4.74002 62.8742 4.74002ZM80.0708 10.26C80.0708 10.58 80.0508 10.9134 80.0108 11.26H72.2708C72.3241 11.9534 72.5441 12.4867 72.9308 12.86C73.3308 13.22 73.8175 13.4 74.3908 13.4C75.2441 13.4 75.8375 13.04 76.1708 12.32H79.8108C79.6241 13.0534 79.2841 13.7134 78.7908 14.3C78.3108 14.8867 77.7041 15.3467 76.9708 15.68C76.2375 16.0134 75.4175 16.18 74.5108 16.18C73.4175 16.18 72.4441 15.9467 71.5908 15.48C70.7375 15.0134 70.0708 14.3467 69.5908 13.48C69.1108 12.6134 68.8708 11.6 68.8708 10.44C68.8708 9.28002 69.1041 8.26669 69.5708 7.40002C70.0508 6.53335 70.7175 5.86669 71.5708 5.40002C72.4241 4.93335 73.4041 4.70002 74.5108 4.70002C75.5908 4.70002 76.5508 4.92669 77.3908 5.38002C78.2308 5.83335 78.8841 6.48002 79.3508 7.32002C79.8308 8.16002 80.0708 9.14002 80.0708 10.26ZM76.5708 9.36002C76.5708 8.77335 76.3708 8.30669 75.9708 7.96002C75.5708 7.61335 75.0708 7.44002 74.4708 7.44002C73.8975 7.44002 73.4108 7.60669 73.0108 7.94002C72.6241 8.27335 72.3841 8.74669 72.2908 9.36002H76.5708ZM94.2533 16.02L89.5333 9.82002V16.02H86.1133V1.98002H89.5333V8.14002L94.2133 1.98002H98.2333L92.7933 8.86002L98.4333 16.02H94.2533ZM106.919 4.74002C108.199 4.74002 109.225 5.16669 109.999 6.02002C110.772 6.86002 111.159 8.02002 111.159 9.50002V16.02H107.759V9.96002C107.759 9.21335 107.565 8.63335 107.179 8.22002C106.792 7.80669 106.272 7.60002 105.619 7.60002C104.965 7.60002 104.445 7.80669 104.059 8.22002C103.672 8.63335 103.479 9.21335 103.479 9.96002V16.02H100.059V1.22002H103.479V6.36002C103.825 5.86669 104.299 5.47335 104.899 5.18002C105.499 4.88669 106.172 4.74002 106.919 4.74002ZM118.615 16.18C117.522 16.18 116.535 15.9467 115.655 15.48C114.788 15.0134 114.102 14.3467 113.595 13.48C113.102 12.6134 112.855 11.6 112.855 10.44C112.855 9.29335 113.108 8.28669 113.615 7.42002C114.122 6.54002 114.815 5.86669 115.695 5.40002C116.575 4.93335 117.562 4.70002 118.655 4.70002C119.748 4.70002 120.735 4.93335 121.615 5.40002C122.495 5.86669 123.188 6.54002 123.695 7.42002C124.202 8.28669 124.455 9.29335 124.455 10.44C124.455 11.5867 124.195 12.6 123.675 13.48C123.168 14.3467 122.468 15.0134 121.575 15.48C120.695 15.9467 119.708 16.18 118.615 16.18ZM118.615 13.22C119.268 13.22 119.822 12.98 120.275 12.5C120.742 12.02 120.975 11.3334 120.975 10.44C120.975 9.54669 120.748 8.86002 120.295 8.38002C119.855 7.90002 119.308 7.66002 118.655 7.66002C117.988 7.66002 117.435 7.90002 116.995 8.38002C116.555 8.84669 116.335 9.53335 116.335 10.44C116.335 11.3334 116.548 12.02 116.975 12.5C117.415 12.98 117.962 13.22 118.615 13.22ZM137.29 4.86002V16.02H133.87V14.5C133.523 14.9934 133.05 15.3934 132.45 15.7C131.863 15.9934 131.21 16.14 130.49 16.14C129.636 16.14 128.883 15.9534 128.23 15.58C127.576 15.1934 127.07 14.64 126.71 13.92C126.35 13.2 126.17 12.3534 126.17 11.38V4.86002H129.57V10.92C129.57 11.6667 129.763 12.2467 130.15 12.66C130.536 13.0734 131.056 13.28 131.71 13.28C132.376 13.28 132.903 13.0734 133.29 12.66C133.676 12.2467 133.87 11.6667 133.87 10.92V4.86002H137.29ZM143.166 6.72002C143.566 6.10669 144.066 5.62669 144.666 5.28002C145.266 4.92002 145.933 4.74002 146.666 4.74002V8.36002H145.726C144.873 8.36002 144.233 8.54669 143.806 8.92002C143.379 9.28002 143.166 9.92002 143.166 10.84V16.02H139.746V4.86002H143.166V6.72002ZM150.021 3.70002C149.421 3.70002 148.927 3.52669 148.541 3.18002C148.167 2.82002 147.981 2.38002 147.981 1.86002C147.981 1.32669 148.167 0.886686 148.541 0.540019C148.927 0.180018 149.421 1.83582e-05 150.021 1.83582e-05C150.607 1.83582e-05 151.087 0.180018 151.461 0.540019C151.847 0.886686 152.041 1.32669 152.041 1.86002C152.041 2.38002 151.847 2.82002 151.461 3.18002C151.087 3.52669 150.607 3.70002 150.021 3.70002ZM151.721 4.86002V16.02H148.301V4.86002H151.721ZM157.619 6.44002C157.939 5.92002 158.399 5.50002 158.999 5.18002C159.599 4.86002 160.286 4.70002 161.059 4.70002C161.979 4.70002 162.813 4.93335 163.559 5.40002C164.306 5.86669 164.893 6.53335 165.319 7.40002C165.759 8.26669 165.979 9.27335 165.979 10.42C165.979 11.5667 165.759 12.58 165.319 13.46C164.893 14.3267 164.306 15 163.559 15.48C162.813 15.9467 161.979 16.18 161.059 16.18C160.273 16.18 159.586 16.0267 158.999 15.72C158.413 15.4 157.953 14.98 157.619 14.46V16.02H154.199V1.22002H157.619V6.44002ZM162.499 10.42C162.499 9.56669 162.259 8.90002 161.779 8.42002C161.313 7.92669 160.733 7.68002 160.039 7.68002C159.359 7.68002 158.779 7.92669 158.299 8.42002C157.833 8.91335 157.599 9.58669 157.599 10.44C157.599 11.2934 157.833 11.9667 158.299 12.46C158.779 12.9534 159.359 13.2 160.039 13.2C160.719 13.2 161.299 12.9534 161.779 12.46C162.259 11.9534 162.499 11.2734 162.499 10.42ZM172.013 4.70002C172.8 4.70002 173.487 4.86002 174.073 5.18002C174.673 5.50002 175.133 5.92002 175.453 6.44002V4.86002H178.873V16C178.873 17.0267 178.667 17.9534 178.253 18.78C177.853 19.62 177.233 20.2867 176.393 20.78C175.567 21.2734 174.533 21.52 173.293 21.52C171.64 21.52 170.3 21.1267 169.273 20.34C168.247 19.5667 167.66 18.5134 167.513 17.18H170.893C171 17.6067 171.253 17.94 171.653 18.18C172.053 18.4334 172.547 18.56 173.133 18.56C173.84 18.56 174.4 18.3534 174.813 17.94C175.24 17.54 175.453 16.8934 175.453 16V14.42C175.12 14.94 174.66 15.3667 174.073 15.7C173.487 16.02 172.8 16.18 172.013 16.18C171.093 16.18 170.26 15.9467 169.513 15.48C168.767 15 168.173 14.3267 167.733 13.46C167.307 12.58 167.093 11.5667 167.093 10.42C167.093 9.27335 167.307 8.26669 167.733 7.40002C168.173 6.53335 168.767 5.86669 169.513 5.40002C170.26 4.93335 171.093 4.70002 172.013 4.70002ZM175.453 10.44C175.453 9.58669 175.213 8.91335 174.733 8.42002C174.267 7.92669 173.693 7.68002 173.013 7.68002C172.333 7.68002 171.753 7.92669 171.273 8.42002C170.807 8.90002 170.573 9.56669 170.573 10.42C170.573 11.2734 170.807 11.9534 171.273 12.46C171.753 12.9534 172.333 13.2 173.013 13.2C173.693 13.2 174.267 12.9534 174.733 12.46C175.213 11.9667 175.453 11.2934 175.453 10.44ZM180.668 10.42C180.668 9.27335 180.881 8.26669 181.308 7.40002C181.748 6.53335 182.341 5.86669 183.088 5.40002C183.834 4.93335 184.668 4.70002 185.588 4.70002C186.374 4.70002 187.061 4.86002 187.648 5.18002C188.248 5.50002 188.708 5.92002 189.028 6.44002V4.86002H192.448V16.02H189.028V14.44C188.694 14.96 188.228 15.38 187.628 15.7C187.041 16.02 186.354 16.18 185.568 16.18C184.661 16.18 183.834 15.9467 183.088 15.48C182.341 15 181.748 14.3267 181.308 13.46C180.881 12.58 180.668 11.5667 180.668 10.42ZM189.028 10.44C189.028 9.58669 188.788 8.91335 188.308 8.42002C187.841 7.92669 187.268 7.68002 186.588 7.68002C185.908 7.68002 185.328 7.92669 184.848 8.42002C184.381 8.90002 184.148 9.56669 184.148 10.42C184.148 11.2734 184.381 11.9534 184.848 12.46C185.328 12.9534 185.908 13.2 186.588 13.2C187.268 13.2 187.841 12.9534 188.308 12.46C188.788 11.9667 189.028 11.2934 189.028 10.44ZM203.522 7.58002V10.42H194.722V7.58002H203.522ZM215.323 1.98002V11.54C215.323 13.02 214.903 14.16 214.063 14.96C213.237 15.76 212.117 16.16 210.703 16.16C209.223 16.16 208.037 15.74 207.143 14.9C206.25 14.06 205.803 12.8667 205.803 11.32H209.203C209.203 11.9067 209.323 12.3534 209.563 12.66C209.803 12.9534 210.15 13.1 210.603 13.1C211.017 13.1 211.337 12.9667 211.563 12.7C211.79 12.4334 211.903 12.0467 211.903 11.54V1.98002H215.323ZM223.166 16.18C222.073 16.18 221.086 15.9467 220.206 15.48C219.339 15.0134 218.653 14.3467 218.146 13.48C217.653 12.6134 217.406 11.6 217.406 10.44C217.406 9.29335 217.659 8.28669 218.166 7.42002C218.673 6.54002 219.366 5.86669 220.246 5.40002C221.126 4.93335 222.113 4.70002 223.206 4.70002C224.299 4.70002 225.286 4.93335 226.166 5.40002C227.046 5.86669 227.739 6.54002 228.246 7.42002C228.753 8.28669 229.006 9.29335 229.006 10.44C229.006 11.5867 228.746 12.6 228.226 13.48C227.719 14.3467 227.019 15.0134 226.126 15.48C225.246 15.9467 224.259 16.18 223.166 16.18ZM223.166 13.22C223.819 13.22 224.373 12.98 224.826 12.5C225.293 12.02 225.526 11.3334 225.526 10.44C225.526 9.54669 225.299 8.86002 224.846 8.38002C224.406 7.90002 223.859 7.66002 223.206 7.66002C222.539 7.66002 221.986 7.90002 221.546 8.38002C221.106 8.84669 220.886 9.53335 220.886 10.44C220.886 11.3334 221.099 12.02 221.526 12.5C221.966 12.98 222.513 13.22 223.166 13.22ZM234.24 6.72002C234.64 6.10669 235.14 5.62669 235.74 5.28002C236.34 4.92002 237.007 4.74002 237.74 4.74002V8.36002H236.8C235.947 8.36002 235.307 8.54669 234.88 8.92002C234.454 9.28002 234.24 9.92002 234.24 10.84V16.02H230.82V4.86002H234.24V6.72002ZM244.975 7.70002H243.135V16.02H239.715V7.70002H238.475V4.86002H239.715V4.54002C239.715 3.16669 240.108 2.12669 240.895 1.42002C241.682 0.700019 242.835 0.340019 244.355 0.340019C244.608 0.340019 244.795 0.346685 244.915 0.360018V3.26002C244.262 3.22002 243.802 3.31335 243.535 3.54002C243.268 3.76669 243.135 4.17335 243.135 4.76002V4.86002H244.975V7.70002Z"
        fill="#E5F3E7"
    />
</svg>